<svg id="Layer_1" enable-background="new 0 0 512 512" height="512" viewBox="0 0 512 512" width="512" xmlns="http://www.w3.org/2000/svg"><g><path d="m137.014 377.923h30.905v82.721h-30.905z" fill="#ebad88"/><path d="m398.872 237.299-19.573-19.574c-2.929-2.929-7.677-2.93-10.607 0-2.929 2.929-2.929 7.677 0 10.606l6.216 6.216h-129.885l6.216-6.216c2.929-2.929 2.929-7.678 0-10.606-2.929-2.929-7.678-2.929-10.606 0l-19.574 19.574c-1.407 1.406-2.197 3.314-2.197 5.303s.79 3.897 2.197 5.303l19.574 19.573c1.464 1.464 3.384 2.197 5.303 2.197s3.839-.732 5.303-2.197c2.929-2.929 2.929-7.678 0-10.606l-7.325-7.325h132.102l-7.325 7.325c-2.929 2.929-2.929 7.678 0 10.606 1.465 1.464 3.385 2.197 5.304 2.197s3.839-.732 5.304-2.197l19.573-19.573c2.929-2.928 2.929-7.677 0-10.606z" fill="#f78e36"/><path d="m105.425 1.977c-7.439-4.174-16.851-1.522-21.022 5.926l-31.745 56.693-25.291-30.329c-13.728-15.21-36.219 3.534-23.71 19.815 0 0 39.656 47.555 39.656 47.555 6.67 8.272 20.302 6.997 25.326-2.348 0 0 42.706-76.267 42.706-76.267 4.17-7.448 1.52-16.87-5.92-21.045z" fill="#7be492"/><path d="m496.547 512h-481.094c-8.535 0-15.453-6.918-15.453-15.453 0-8.534 6.918-15.453 15.453-15.453h481.095c8.534 0 15.453 6.918 15.453 15.453-.001 8.535-6.919 15.453-15.454 15.453z" fill="#7be492"/><path d="m496.547 481.095h-30.905c8.534 0 15.453 6.918 15.453 15.453 0 8.534-6.919 15.453-15.453 15.453h30.905c8.534 0 15.453-6.919 15.453-15.453 0-8.535-6.919-15.453-15.453-15.453z" fill="#45d987"/><path d="m451.219 152.467h30.905v51.509h-30.905z" fill="#e8916f" transform="matrix(-1 0 0 -1 933.344 356.443)"/><path d="m428.555 302.4h61.811v-89.153c0-17.069-13.837-30.905-30.905-30.905-17.069 0-30.905 13.837-30.905 30.905v89.153z" fill="#e33629"/><path d="m490.366 302.398v3.214c0 9.603-3.373 18.9-9.529 26.27-6.156 7.369-9.529 16.667-9.529 26.27v118.943c0 2.209-1.791 4-4 4h-26.905v-101.372c0-14.949-1.592-29.856-4.749-44.468l-7.098-32.857z" fill="#4362a0"/><path d="m459.461 168.95c17.069 0 30.905-13.837 30.905-30.905v-16.483c0-17.069-13.837-30.905-30.905-30.905-17.069 0-30.905 13.837-30.905 30.905v16.483c-.001 17.068 13.836 30.905 30.905 30.905z" fill="#ebad88"/><path d="m420.708 481.095h46.6c2.209 0 4-1.791 4-4v-28.966h-33.996c-11.379 0-20.604 9.225-20.604 20.604v8.362c0 2.209 1.791 4 4 4z" fill="#be652b"/><path d="m490.366 336.737v-120.993c0-8.321-6.394-15.48-14.706-15.872-8.874-.418-16.2 6.653-16.2 15.435v121.429c0 8.534 6.918 15.453 15.453 15.453 8.535.001 15.453-6.918 15.453-15.452z" fill="#ebad88"/><path d="m490.366 242.602v-27.294c0-8.534-6.919-15.453-15.453-15.453s-15.453 6.919-15.453 15.453v27.294z" fill="#4362a0"/><path d="m477.719 132.954c-1.781-3.74-6.258-5.325-9.996-3.545l-30.781 14.665c-3.739 1.782-5.327 6.257-3.545 9.997 1.285 2.699 3.974 4.276 6.775 4.276 1.081 0 2.18-.235 3.221-.731l30.781-14.665c3.739-1.782 5.327-6.258 3.545-9.997z" fill="#e4e4e4"/><path d="m147.831 152.467h30.905v51.509h-30.905z" fill="#e8916f" transform="matrix(-1 0 0 -1 326.567 356.443)"/><path d="m125.167 302.4h61.811v-89.153c0-17.069-13.837-30.905-30.905-30.905-17.069 0-30.905 13.837-30.905 30.905v89.153z" fill="#ffd54f"/><path d="m186.978 302.398v3.214c0 9.603-3.373 18.9-9.529 26.27-6.157 7.369-9.529 16.667-9.529 26.27v32.287h-30.905v-10.716c0-14.949-1.592-29.856-4.749-44.468l-7.098-32.857z" fill="#4362a0"/><path d="m156.072 168.95c17.069 0 30.905-13.837 30.905-30.905v-16.483c0-17.069-13.837-30.905-30.905-30.905-17.069 0-30.905 13.837-30.905 30.905v16.483c0 17.068 13.837 30.905 30.905 30.905z" fill="#ebad88"/><path d="m117.32 481.095h46.6c2.209 0 4-1.791 4-4v-28.966h-33.996c-11.379 0-20.604 9.225-20.604 20.604v8.362c0 2.209 1.791 4 4 4z" fill="#be652b"/><path d="m186.978 336.737v-120.993c0-8.321-6.394-15.48-14.706-15.872-8.874-.418-16.2 6.653-16.2 15.435v121.429c0 8.534 6.918 15.453 15.453 15.453 8.535.001 15.453-6.918 15.453-15.452z" fill="#ebad88"/><path d="m186.978 242.602v-27.294c0-8.534-6.919-15.453-15.453-15.453s-15.453 6.919-15.453 15.453v27.294z" fill="#4362a0"/><path d="m175.153 132.537c-1.785-3.738-6.261-5.32-10-3.536l-32.43 15.486c-3.738 1.785-5.321 6.262-3.536 10 1.287 2.695 3.973 4.27 6.773 4.27 1.083 0 2.184-.236 3.227-.734l32.43-15.486c3.737-1.785 5.321-6.262 3.536-10z" fill="#e4e4e4"/><path d="m436.216 172.674h5.309c2.692 0 4.874-2.182 4.874-4.874v-21.515c0-1.926-1.561-3.487-3.487-3.487h-20.921c-1.313 0-2.377 1.064-2.377 2.377v10.896c0 9.17 7.433 16.603 16.602 16.603z" fill="#7be492"/><path d="m132.827 172.674h5.309c2.692 0 4.874-2.182 4.874-4.874v-21.515c0-1.926-1.561-3.487-3.487-3.487h-20.921c-1.313 0-2.377 1.064-2.377 2.377v10.896c.001 9.17 7.433 16.603 16.602 16.603z" fill="#7be492"/><path d="m492.942 104.312v35.845c0 6.229-5.05 11.279-11.279 11.279-9.701 0-17.566-7.865-17.566-17.566v-.766c0-5.806-4.707-10.513-10.513-10.513h-18.332c-10.241 0-18.543-8.302-18.543-18.543 0-10.241 8.302-18.543 18.543-18.543h38.883c10.386 0 18.807 8.42 18.807 18.807z" fill="#d67b42"/><path d="m474.134 85.505h-30.905c10.387 0 18.807 8.42 18.807 18.807v22.56c1.289 1.745 2.06 3.896 2.06 6.232v.766c0 9.701 7.864 17.566 17.566 17.566 6.229 0 11.279-5.05 11.279-11.279v-35.845c.001-10.387-8.42-18.807-18.807-18.807z" fill="#be652b"/><path d="m189.553 104.312v35.845c0 6.229-5.05 11.279-11.279 11.279-9.701 0-17.566-7.865-17.566-17.566v-.766c0-5.806-4.707-10.513-10.513-10.513h-18.332c-10.241 0-18.543-8.302-18.543-18.543 0-10.241 8.302-18.543 18.543-18.543h38.883c10.387 0 18.807 8.42 18.807 18.807z" fill="#ffc328"/><path d="m170.746 85.505h-30.905c10.387 0 18.807 8.42 18.807 18.807v22.56c1.289 1.745 2.06 3.896 2.06 6.232v.766c0 9.701 7.864 17.566 17.566 17.566 6.229 0 11.279-5.05 11.279-11.279v-35.845c0-10.387-8.42-18.807-18.807-18.807z" fill="#ffb200"/></g></svg>