<svg id="Capa_1" enable-background="new 0 0 512 512" height="512" viewBox="0 0 512 512" width="512" xmlns="http://www.w3.org/2000/svg"><g><g><path clip-rule="evenodd" d="m404.809 20.102c79.783 24.142 124.855 108.225 100.651 187.834-15.319 50.374-54.724 86.88-101.832 100.777-20.425 38.744-38.991 51.051-67.12 50.462-6.936-.147 1.948-6.359 7.733-28.411 3.985-15.133-26.801-21.934-27.067-22.434-79.812-24.142-124.884-108.225-100.681-187.834 24.205-79.579 108.533-124.536 188.316-100.394z" fill="#ffe58a" fill-rule="evenodd"/></g><g><path clip-rule="evenodd" d="m505.46 207.936c24.203-79.608-20.868-163.692-100.651-187.834-30.166-9.127-60.981-8.361-88.933.383 13.961.383 28.1 2.62 42.12 6.86 84.742 25.643 132.588 114.938 106.879 199.463-10.036 32.974-29.753 60.354-55.166 79.962 44.393-15.163 81.111-50.64 95.751-98.834z" fill="#ffd772" fill-rule="evenodd"/></g><g><path clip-rule="evenodd" d="m132.549 243.324c8.796-8.773 7.999-22.375 0-31.914l-38.047-45.398c-36.6-43.632-67.298-25.938-79.016 4.593-21.34 55.614-24.646 108.608 16.057 149.207l147.523 147.146c40.703 40.599 93.833 37.302 149.589 16.016 30.609-11.688 48.348-42.336 4.605-78.814l-45.514-37.949c-9.563-7.978-23.2-8.773-31.996 0l-12.161 12.1c-38.283 25.643-156.29-102.896-123.172-122.857z" fill="#9dc6fb" fill-rule="evenodd"/></g><g><path clip-rule="evenodd" d="m424.526 186.238c8.589 0 15.644-7.007 15.644-15.574v-22.728c0-8.567-7.054-15.574-15.644-15.574h-36.541v-36.449c0-8.567-7.025-15.574-15.614-15.574h-22.757c-8.619 0-15.644 7.007-15.644 15.574v36.448h-36.541c-8.589 0-15.614 7.007-15.614 15.574v22.728c0 8.567 7.025 15.574 15.614 15.574h36.541v36.448c0 8.567 7.025 15.574 15.644 15.574h22.757c8.589 0 15.614-7.007 15.614-15.574v-36.448h36.541z" fill="#ff8086" fill-rule="evenodd"/></g><g><path clip-rule="evenodd" d="m440.17 170.663v-22.728c0-8.567-7.054-15.574-15.644-15.574h-36.541v-36.448c0-8.567-7.025-15.574-15.614-15.574h-17.474c10.803 23.612 17.09 51.816 17.09 82.111 0 27.645-5.254 53.553-14.374 75.811h14.758c8.589 0 15.614-7.007 15.614-15.574v-36.448h36.541c8.589-.001 15.644-7.008 15.644-15.576z" fill="#e5646e" fill-rule="evenodd"/></g><g><path clip-rule="evenodd" d="m328.657 482.973c30.609-11.688 48.348-42.336 4.605-78.814l-45.514-37.949c-3.69-3.091-7.999-5.093-12.426-5.888l14.345 11.953c43.773 36.507 26.034 67.125-4.575 78.814-40.733 15.545-80.049 21.492-114.14 7.743l8.117 8.126c40.702 40.599 93.831 37.301 149.588 16.015z" fill="#80b4fb" fill-rule="evenodd"/></g></g></svg>