<svg height="512" viewBox="0 0 64 64" width="512" xmlns="http://www.w3.org/2000/svg"><g id="virus-covid19-corona-call-telephone"><path d="m50.937 53.972a2.008 2.008 0 0 0 .1-2.934l-9.624-9.624a2 2 0 0 0 -2.828 0l-2.585 2.586 12.12 12.12a29.313 29.313 0 0 0 2.817-2.148z" fill="#9bc9ff"/><path d="m51.038 51.038-9.624-9.624a2 2 0 0 0 -2.414-.309 1.967 1.967 0 0 1 .414.309l9.624 9.624a2.008 2.008 0 0 1 -.1 2.934c-.532.459-1.087.893-1.651 1.314l.834.834a29.313 29.313 0 0 0 2.817-2.148 2.008 2.008 0 0 0 .1-2.934z" fill="#57a4ff"/><path d="m22.586 25.414a2 2 0 0 0 0-2.828l-9.624-9.624a2.008 2.008 0 0 0 -2.934.1 29.313 29.313 0 0 0 -2.148 2.818l12.12 12.12z" fill="#9bc9ff"/><path d="m22.586 22.586-9.624-9.624a2 2 0 0 0 -2.419-.312 1.985 1.985 0 0 1 .419.312l9.624 9.624a2 2 0 0 1 0 2.828l-1.586 1.586 1 1 2.586-2.586a2 2 0 0 0 0-2.828z" fill="#57a4ff"/><path d="m21.12 58.88a29.031 29.031 0 0 0 27-2.76l-12.12-12.12-2.672 2.672a7.935 7.935 0 0 1 -8.937 1.645 18.078 18.078 0 0 1 -8.707-8.706 7.941 7.941 0 0 1 1.646-8.942l2.67-2.669-12.12-12.12a29.014 29.014 0 0 0 13.24 43z" fill="#006df0"/><path d="m36 44-1 1 7.3 7.3a4.01 4.01 0 0 1 -1.339 6.549 29.072 29.072 0 0 1 -10.175 2.121c.4.017.807.03 1.214.03a28.912 28.912 0 0 0 16.12-4.88z" fill="#005ece"/><path d="m15.42 30.58-.088.088a7.952 7.952 0 0 0 -1.632 8.974 18.075 18.075 0 0 0 8.693 8.675 7.691 7.691 0 0 0 4.211.641 7.616 7.616 0 0 1 -2.211-.641 18.075 18.075 0 0 1 -8.693-8.675 7.952 7.952 0 0 1 1.634-8.974l2.666-2.668-12.12-12.12c-.269.4-.515.82-.764 1.236l8.3 8.3a3.649 3.649 0 0 1 .004 5.164z" fill="#005ece"/><path d="m61 20a17 17 0 0 1 -17 17 16.782 16.782 0 0 1 -7.71-1.86h-.01l-9.28 1.86 1.86-9.28v-.01a16.782 16.782 0 0 1 -1.86-7.71 17 17 0 0 1 34 0z" fill="#ffcd00"/><path d="m44 3c-.506 0-1.005.032-1.5.076a16.989 16.989 0 0 1 -.018 33.849c.5.045 1.006.075 1.518.075a17 17 0 0 0 0-34z" fill="#ebbf00"/><path d="m41 30h6v-7h7v-6h-7v-7h-6v7h-7v6h7z" fill="#ed1c24"/></g></svg>