<svg id="Filled_stroke_cut_Ex" height="512" viewBox="0 0 512 512" width="512" xmlns="http://www.w3.org/2000/svg" data-name="Filled stroke cut Ex"><g><g><path d="m312 80v79.974a20 20 0 0 0 5.875 14.159l17.3 17.255a30 30 0 0 0 21.3 8.761l7.147-.026a30 30 0 0 0 21.13-8.812l17.413-17.456a20 20 0 0 0 5.835-14.125v-79.73z" fill="#fbb8b0"/><path d="m440 312h-160v-91.639a20 20 0 0 1 11.056-17.889l36.944-18.472h64l36.944 18.472a20 20 0 0 1 11.056 17.889z" fill="#57cee6"/><path d="m377.889 140.223a40 40 0 0 0 -35.778 0l-30.111 12.915v6.836a20 20 0 0 0 5.875 14.159l17.3 17.255a30 30 0 0 0 21.3 8.761l7.147-.026a30 30 0 0 0 21.13-8.812l17.413-17.456a20 20 0 0 0 5.835-14.125v-6.592z" fill="#fff5f4"/><path d="m416 104-32.365-13.871a60 60 0 0 0 -47.27 0l-32.365 13.871-16-48 42.861-23.812a60 60 0 0 1 58.278 0l42.861 23.812z" fill="#57cee6"/></g><path d="m40 344h432v144h-432z" fill="#57cee6"/><path d="m24 312h464v32h-464z" fill="#31cad0"/><path d="m296 400h-24v-24h-32v24h-24v32h24v24h32v-24h24z" fill="#f8fdfe"/><g fill="#fdbf44"><rect height="144" rx="10" width="224" x="24" y="112"/><path d="m368 248h104v64h-104z"/><path d="m112 232h48v80h-48z"/></g><circle cx="136" cy="168" fill="#fffcf8" r="24"/><g><path d="m288 220.361a11.936 11.936 0 0 1 6.633-10.734l31.638-15.819 3.251 3.244a38.257 38.257 0 0 0 26.84 11.1h.136l7.147-.026a37.759 37.759 0 0 0 26.765-11.166l3.2-3.21 31.755 15.877a11.936 11.936 0 0 1 6.635 10.734v3.639h16v-3.639a27.847 27.847 0 0 0 -15.478-25.044l-27-13.5 2.3-2.31a27.821 27.821 0 0 0 8.178-19.777v-47.73a8 8 0 0 0 7.589-5.47l16-48a8 8 0 0 0 -3.7-9.523l-42.865-23.807a67.6 67.6 0 0 0 -66.048 0l-42.861 23.807a8 8 0 0 0 -3.7 9.523l16 48a8 8 0 0 0 7.585 5.47v47.975a27.816 27.816 0 0 0 8.225 19.823l2.1 2.1-26.848 13.424a27.847 27.847 0 0 0 -15.477 25.039v67.639h16zm75.587-28.238-7.147.026h-.079a22.152 22.152 0 0 1 -15.539-6.424l-17.3-17.255a11.924 11.924 0 0 1 -3.522-8.249l25.686-12.843a32.157 32.157 0 0 1 28.622 0l25.679 12.84a11.921 11.921 0 0 1 -3.494 7.987l-17.413 17.456a21.864 21.864 0 0 1 -15.493 6.462zm-24.071-94.641a52.24 52.24 0 0 1 40.968 0l19.516 8.364v36.489l-18.534-9.267a48.227 48.227 0 0 0 -42.932 0l-18.534 9.267v-36.489zm-41.827-37.713 37.058-20.588a51.691 51.691 0 0 1 50.506 0l37.058 20.588-11.151 33.453-24.373-10.446a68.3 68.3 0 0 0 -53.574 0l-24.373 10.446z"/><path d="m352 72h16v-8h8v-16h-8v-8h-16v8h-8v16h8z"/><path d="m304 240h40v16h-40z"/><path d="m488 304h-8v-56a8 8 0 0 0 -8-8h-104a8 8 0 0 0 -8 8v56h-192v-40h70a18.021 18.021 0 0 0 18-18v-124a18.021 18.021 0 0 0 -18-18h-204a18.021 18.021 0 0 0 -18 18v30h16v-30a2 2 0 0 1 2-2h204a2 2 0 0 1 2 2v124a2 2 0 0 1 -2 2h-70v-16h16v-16h-96v16h16v16h-70a2 2 0 0 1 -2-2v-78h-16v78a18.021 18.021 0 0 0 18 18h70v40h-80a8 8 0 0 0 -8 8v32a8 8 0 0 0 8 8h8v136a8 8 0 0 0 8 8h432a8 8 0 0 0 8-8v-64h-16v56h-416v-128h416v56h16v-56h8a8 8 0 0 0 8-8v-32a8 8 0 0 0 -8-8zm-112-48h88v48h-88zm-256-24h32v72h-32zm360 104h-448v-16h448z"/><path d="m240 464h32a8 8 0 0 0 8-8v-16h16a8 8 0 0 0 8-8v-32a8 8 0 0 0 -8-8h-16v-16a8 8 0 0 0 -8-8h-32a8 8 0 0 0 -8 8v16h-16a8 8 0 0 0 -8 8v32a8 8 0 0 0 8 8h16v16a8 8 0 0 0 8 8zm-16-40v-16h16a8 8 0 0 0 8-8v-16h16v16a8 8 0 0 0 8 8h16v16h-16a8 8 0 0 0 -8 8v16h-16v-16a8 8 0 0 0 -8-8z"/><path d="m392 272h56v16h-56z"/><path d="m136 200a32 32 0 1 0 -32-32 32.036 32.036 0 0 0 32 32zm0-48a16 16 0 1 1 -16 16 16.019 16.019 0 0 1 16-16z"/></g></g></svg>