<svg id="Capa_1" enable-background="new 0 0 512 512" height="512" viewBox="0 0 512 512" width="512" xmlns="http://www.w3.org/2000/svg"><g><g><path clip-rule="evenodd" d="m147.452 41.994h-92.654c-2.952 0-5.349 2.424-5.349 5.373v419.266c0 2.95 2.397 5.344 5.349 5.344h216.526c-9.09-10.075-14.673-23.1-15.404-36.971z" fill="#e29d7b" fill-rule="evenodd"/></g><g><path clip-rule="evenodd" d="m292.222 78.965v-36.971-4.38c0-5.023-4.121-9.14-9.149-9.14h-21.395v-9.257c0-10.573-8.652-19.217-19.233-19.217h-55.505c-10.581 0-19.262 8.644-19.262 19.216v9.257h-21.366c-5.027 0-9.178 4.118-9.178 9.14v4.38 36.971h155.088z" fill="#7e707d" fill-rule="evenodd"/></g><g><path clip-rule="evenodd" d="m379.937 389.129v-341.762c0-2.95-2.397-5.373-5.349-5.373h-92.655v36.971l61 319.976c7.804 3.942 14.497 9.462 19.759 16.091z" fill="#ce8b6b" fill-rule="evenodd"/></g><g><path clip-rule="evenodd" d="m342.933 378.324v-294.366c0-2.745-2.251-4.994-4.998-4.994h-45.714-155.086-45.685c-2.747 0-4.998 2.249-4.998 4.994v346.055c0 2.745 2.251 4.994 4.998 4.994h164.47c36.623 5.84 86.75-23.392 87.013-56.683z" fill="#faf5dc" fill-rule="evenodd"/></g><g><path clip-rule="evenodd" d="m179.575 375.404v-42.49c0-2.628-2.163-4.819-4.794-4.819h-42.528c-2.66 0-4.823 2.19-4.823 4.819v42.49c0 2.657 2.163 4.819 4.823 4.819h42.528c2.631-.001 4.794-2.162 4.794-4.819z" fill="#b3e59f" fill-rule="evenodd"/></g><g><path clip-rule="evenodd" d="m179.575 270.536v-42.49c0-2.657-2.163-4.818-4.794-4.818h-42.528c-2.66 0-4.823 2.161-4.823 4.818v42.49c0 2.628 2.163 4.818 4.823 4.818h42.528c2.631 0 4.794-2.19 4.794-4.818z" fill="#b3e59f" fill-rule="evenodd"/></g><g><path clip-rule="evenodd" d="m179.575 167.216v-42.49c0-2.628-2.163-4.818-4.794-4.818h-42.528c-2.66 0-4.823 2.19-4.823 4.818v42.49c0 2.657 2.163 4.818 4.823 4.818h42.528c2.631 0 4.794-2.161 4.794-4.818z" fill="#b3e59f" fill-rule="evenodd"/></g><g><path clip-rule="evenodd" d="m362.692 394.415c-5.261-6.6-11.955-12.148-19.759-16.091-4.267-2.161-8.885-3.855-13.767-4.965-32.298-7.359-64.449 12.82-71.815 45.06-1.286 5.578-1.724 11.156-1.432 16.587.731 13.871 6.313 26.896 15.404 36.971 7.979 8.819 18.648 15.361 31.128 18.193 7.366 1.694 14.731 1.927 21.775.935 41.447-6.161 66.029-53.12 38.466-96.69z" fill="#b3e59f" fill-rule="evenodd"/></g><g><path clip-rule="evenodd" d="m393.06 494.084 31.392-47.104-44.515-29.612-7.366-4.877-15.17-10.104-14.468 21.698-7.278 10.922-9.645 14.485c-4.589 6.921-6.752 14.747-6.723 22.486.058 6.658 1.754 13.258 4.94 19.128 3.011 5.549 7.395 10.484 13.007 14.193 18.443 12.264 43.58 7.212 55.826-11.215z" fill="#f9f7f8" fill-rule="evenodd"/></g><g><path clip-rule="evenodd" d="m455.844 399.846c12.276-18.427 7.219-43.542-11.224-55.807-18.443-12.236-43.58-7.213-55.856 11.214l-8.827 13.287-17.245 25.874-5.29 7.972 15.17 10.104 7.366 4.877 44.515 29.612z" fill="#ff8086" fill-rule="evenodd"/></g><g><path clip-rule="evenodd" d="m455.844 399.846c12.276-18.427 7.219-43.542-11.224-55.807-3.887-2.57-8.096-4.41-12.393-5.49 9.938 13.287 11.048 31.977 1.345 46.491l-31.362 47.134 22.243 14.806z" fill="#e5646e" fill-rule="evenodd"/></g><g><path clip-rule="evenodd" d="m393.06 494.084 31.392-47.104-22.243-14.806-22.272 33.408-4.15 6.249-4.969 7.476c-9.675 14.514-27.358 20.734-43.463 16.675 2.689 3.563 5.963 6.717 9.879 9.316 18.443 12.265 43.58 7.213 55.826-11.214z" fill="#f0f0f0" fill-rule="evenodd"/></g><g><path clip-rule="evenodd" d="m357.402 402.387 5.29-7.972c-.029-.029-.088-.088-.117-.146-5.349-6.629-12.042-12.09-19.642-15.916-.409-.234-.818-.409-1.228-.613l-40.862 61.355c-6.723 10.104-9.85 21.552-9.704 32.882.058 5.198.818 10.367 2.221 15.361 2.894 1.168 5.933 2.132 9.09 2.833 7.366 1.694 14.731 1.927 21.775.935-3.186-5.87-4.881-12.47-4.94-19.128-.029-7.739 2.134-15.565 6.723-22.486 10.466-15.683 20.93-31.394 31.394-47.105z" fill="#95d6a4" fill-rule="evenodd"/></g><g><path clip-rule="evenodd" d="m342.933 273.047v-35.686-153.403c0-2.745-2.251-4.994-4.998-4.994h-45.714-10.288-51.822c8.739 15.156 16.251 31.51 22.418 48.856 4.121 11.681 7.629 23.8 10.464 36.299 4.823 21.347 7.658 43.804 8.242 67.021.058 2.92.117 5.87.117 8.819 0 9.287-.38 18.427-1.081 27.48-1.871 23.917-6.167 46.929-12.539 68.568-3.712 12.586-8.126 24.706-13.182 36.299-1.198 2.745-2.426 5.461-3.712 8.118-9.47 20.092-20.957 38.431-34.051 54.58h49.133c-.292-5.432.146-11.009 1.432-16.587 7.366-32.24 39.517-52.419 71.815-45.06 3.274.759 6.43 1.781 9.47 3.008 1.461.613 2.894 1.256 4.297 1.957v-105.275z" fill="#f5ebcd" fill-rule="evenodd"/></g><g><path clip-rule="evenodd" d="m271.323 471.978c-9.09-10.075-14.673-23.1-15.404-36.971h-49.133c-11.399 14.076-24.055 26.516-37.705 36.971z" fill="#ce8b6b" fill-rule="evenodd"/></g><g><path d="m301.955 135.608h-81.372c-4.301 0-7.787-3.486-7.787-7.787s3.486-7.787 7.787-7.787h81.372c4.301 0 7.787 3.486 7.787 7.787s-3.486 7.787-7.787 7.787z" fill="#6a5d6a"/></g><g><path d="m301.955 171.907h-81.372c-4.301 0-7.787-3.486-7.787-7.787s3.486-7.787 7.787-7.787h81.372c4.301 0 7.787 3.486 7.787 7.787s-3.486 7.787-7.787 7.787z" fill="#6a5d6a"/></g><g><path d="m301.955 238.929h-81.372c-4.301 0-7.787-3.486-7.787-7.787s3.486-7.787 7.787-7.787h81.372c4.301 0 7.787 3.486 7.787 7.787 0 4.3-3.486 7.787-7.787 7.787z" fill="#6a5d6a"/></g><g><path d="m301.955 275.227h-81.372c-4.301 0-7.787-3.486-7.787-7.787s3.486-7.787 7.787-7.787h81.372c4.301 0 7.787 3.486 7.787 7.787s-3.486 7.787-7.787 7.787z" fill="#6a5d6a"/></g><g><path d="m301.955 343.796h-81.372c-4.301 0-7.787-3.486-7.787-7.787s3.486-7.787 7.787-7.787h81.372c4.301 0 7.787 3.486 7.787 7.787s-3.486 7.787-7.787 7.787z" fill="#6a5d6a"/></g><g><path d="m253.669 380.095h-33.087c-4.301 0-7.787-3.486-7.787-7.787s3.486-7.787 7.787-7.787h33.087c4.301 0 7.787 3.486 7.787 7.787s-3.486 7.787-7.787 7.787z" fill="#6a5d6a"/></g><g><path clip-rule="evenodd" d="m292.222 78.965v-36.971-4.38c0-5.023-4.121-9.14-9.149-9.14h-21.395v-9.257c0-10.573-8.652-19.217-19.233-19.217h-23.704c7.073 10.659 11.195 23.333 11.195 36.942 0 15.828-5.583 30.4-14.936 42.023z" fill="#6a5d6a" fill-rule="evenodd"/></g></g></svg>