<svg id="Capa_1" enable-background="new 0 0 512 512" height="512" viewBox="0 0 512 512" width="512" xmlns="http://www.w3.org/2000/svg"><g><path d="m481.095 373.916h-450.19c-17.068 0-30.905-13.837-30.905-30.905v-312.106c0-17.068 13.837-30.905 30.905-30.905h450.189c17.069 0 30.906 13.837 30.906 30.905v312.105c0 17.069-13.837 30.906-30.905 30.906z" fill="#3d6d93"/><path d="m481.095 0h-30.905c17.069 0 30.905 13.837 30.905 30.905v312.105c0 17.069-13.837 30.905-30.905 30.905h30.905c17.069 0 30.905-13.837 30.905-30.905v-312.105c0-17.068-13.837-30.905-30.905-30.905z" fill="#335e80"/><path d="m30.905 338.89v-303.864c0-2.276 1.845-4.121 4.121-4.121h441.948c2.276 0 4.121 1.845 4.121 4.121v303.864c0 2.276-1.845 4.121-4.121 4.121h-441.948c-2.276 0-4.121-1.845-4.121-4.121z" fill="#e9f5ff"/><path d="m476.974 30.905h-30.905c2.276 0 4.121 1.845 4.121 4.121v303.864c0 2.276-1.845 4.121-4.121 4.121h30.905c2.276 0 4.121-1.845 4.121-4.121v-303.864c0-2.276-1.845-4.121-4.121-4.121z" fill="#d8ecfe"/><g><g><path d="m30.905 256h450.189v30.905h-450.189z" fill="#e19974"/></g><path d="m450.189 256h30.905v30.905h-30.905z" fill="#dc8758"/><g><path d="m246.908 256h-45.527c-4.979 0-9.015-4.036-9.015-9.015v-158.785c0-4.979 4.036-9.015 9.015-9.015h45.527c4.979 0 9.015 4.036 9.015 9.015v158.785c.001 4.979-4.036 9.015-9.015 9.015z" fill="#ffe179"/><path d="m246.908 79.185h-30.905c4.979 0 9.015 4.036 9.015 9.015v158.785c0 4.979-4.036 9.015-9.015 9.015h30.905c4.979 0 9.015-4.036 9.015-9.015v-158.785c.001-4.979-4.036-9.015-9.015-9.015z" fill="#fbd268"/><path d="m310.465 256h-45.527c-4.979 0-9.015-4.036-9.015-9.015v-139.467c0-4.979 4.036-9.015 9.015-9.015h45.527c4.979 0 9.015 4.036 9.015 9.015v139.466c.001 4.98-4.036 9.016-9.015 9.016z" fill="#f58a97"/><path d="m310.465 98.503h-30.905c4.979 0 9.015 4.036 9.015 9.015v139.466c0 4.979-4.036 9.015-9.015 9.015h30.905c4.979 0 9.015-4.036 9.015-9.015v-139.466c.001-4.979-4.036-9.015-9.015-9.015z" fill="#f07281"/><path d="m183.504 256.4h-45.527c-4.979 0-9.015-4.036-9.015-9.015v-139.467c0-4.979 4.036-9.015 9.015-9.015h45.527c4.979 0 9.015 4.036 9.015 9.015v139.466c0 4.98-4.036 9.016-9.015 9.016z" fill="#aee69c"/><path d="m183.504 98.903h-30.905c4.979 0 9.015 4.036 9.015 9.015v139.466c0 4.979-4.036 9.015-9.015 9.015h30.905c4.979 0 9.015-4.036 9.015-9.015v-139.466c0-4.979-4.036-9.015-9.015-9.015z" fill="#89daa4"/><path d="m374.023 256h-45.527c-4.979 0-9.015-4.036-9.015-9.015v-158.785c0-4.979 4.036-9.015 9.015-9.015h45.527c4.979 0 9.015 4.036 9.015 9.015v158.785c0 4.979-4.036 9.015-9.015 9.015z" fill="#8fd8fa"/><path d="m374.023 79.185h-30.905c4.979 0 9.015 4.036 9.015 9.015v158.785c0 4.979-4.036 9.015-9.015 9.015h30.905c4.979 0 9.015-4.036 9.015-9.015v-158.785c0-4.979-4.036-9.015-9.015-9.015z" fill="#6bcdfe"/><path d="m192.366 127.281h63.557v80.622h-63.557z" fill="#fef0ae"/><path d="m225.018 127.281h30.905v80.622h-30.905z" fill="#fee97d"/><path d="m319.481 127.281h63.557v80.622h-63.557z" fill="#dff6fd"/><path d="m352.133 127.281h30.905v80.622h-30.905z" fill="#c8effe"/></g></g><path d="m225.281 373.916h61.437v80.886h-61.437z" fill="#335e80"/><path d="m255.813 373.916h30.905v80.886h-30.905z" fill="#2e5973"/><path d="m358.254 486.476v18.313c0 3.983-3.229 7.211-7.211 7.211h-190.086c-3.983 0-7.211-3.229-7.211-7.211v-18.313c0-3.011 1.871-5.705 4.692-6.757l66.843-24.917h61.437l66.843 24.917c2.822 1.052 4.693 3.746 4.693 6.757z" fill="#3d6d93"/><path d="m353.561 479.719-66.843-24.917h-30.905l66.843 24.917c2.821 1.052 4.692 3.746 4.692 6.757v18.313c0 3.983-3.229 7.211-7.211 7.211h30.905c3.983 0 7.211-3.229 7.211-7.211v-18.313c.001-3.011-1.87-5.705-4.692-6.757z" fill="#335e80"/></g></svg>