<?xml version="1.0" encoding="iso-8859-1"?>
<!-- Generator: Adobe Illustrator 19.0.0, SVG Export Plug-In . SVG Version: 6.00 Build 0)  -->
<svg version="1.1" id="Capa_1" xmlns="http://www.w3.org/2000/svg" xmlns:xlink="http://www.w3.org/1999/xlink" x="0px" y="0px"
	 viewBox="0 0 512 512" style="enable-background:new 0 0 512 512;" xml:space="preserve">
<polyline style="fill:#EA6B65;" points="280.815,49.548 280.807,421.161 363.388,421.161 379.904,421.161 379.904,133.161 
	379.904,49.548 280.815,49.548 "/>
<polygon style="fill:#6CBAE5;" points="113.111,419.857 16.483,397.774 85.165,94.068 181.785,116.15 "/>
<polyline style="fill:#F7BA61;" points="280.807,421.161 198.226,421.161 198.226,8.258 280.807,8.258 280.807,181.677 
	280.807,297.29 280.807,421.161 355.13,421.161 "/>
<g>
	<rect x="223.017" y="379.871" style="fill:#277BAA;" width="33.032" height="16.516"/>
	<rect x="223.017" y="33.032" style="fill:#277BAA;" width="33.032" height="16.516"/>
	<rect x="223.017" y="66.065" style="fill:#277BAA;" width="33.032" height="16.516"/>
	<rect x="223.017" y="99.097" style="fill:#277BAA;" width="33.032" height="16.516"/>
</g>
<rect x="280.824" y="49.548" style="fill:#DC4D41;" width="99.089" height="41.29"/>
<g>
	<polygon style="fill:#3B869E;" points="170.281,167.019 181.785,116.15 85.165,94.068 74.017,143.377 77.931,144.285 	"/>
	<polygon style="fill:#3B869E;" points="28.606,344.163 16.483,397.774 113.111,419.857 124.87,367.839 35.534,345.856 	"/>
</g>
<polygon style="fill:#EA9D2D;" points="198.226,234.29 223.075,124.408 198.226,118.726 "/>
<rect x="280.824" y="49.548" style="fill:#DC4D41;" width="41.29" height="371.613"/>
<rect x="280.824" y="49.548" style="fill:#C7463B;" width="41.282" height="41.29"/>
<polygon style="fill:#DC4D41;" points="280.807,379.871 280.807,421.161 363.388,421.161 379.904,421.161 379.904,379.871 "/>
<rect x="346.888" y="404.645" style="fill:#4799CF;" width="66.065" height="99.097"/>
<rect x="363.404" y="346.839" style="fill:#B9B9B9;" width="33.032" height="66.065"/>
<rect x="363.404" y="388.129" style="fill:#6C7175;" width="33.032" height="16.516"/>
<rect x="346.888" y="462.452" style="fill:#277BAA;" width="66.065" height="16.516"/>
<circle style="fill:#6FBBC6;" cx="379.92" cy="239.484" r="115.613"/>
<circle style="fill:#D9D9D9;" cx="379.92" cy="239.484" r="82.581"/>
<path style="fill:#F0F0F0;" d="M379.904,156.903c-13.618,0-26.434,3.353-37.764,9.199c-2.271,7.548-3.526,15.542-3.526,23.833
	c0,45.609,36.971,82.581,82.581,82.581c13.618,0,26.434-3.353,37.764-9.199c2.271-7.548,3.526-15.542,3.526-23.833
	C462.484,193.875,425.513,156.903,379.904,156.903z"/>
<rect x="346.888" y="404.645" style="fill:#DBDBDB;" width="66.065" height="33.032"/>
<rect x="280.824" y="379.871" style="fill:#C7463B;" width="41.29" height="41.29"/>
<path d="M388.162,116.034V49.548c0-4.567-3.7-8.258-8.258-8.258h-90.839V8.258c0-4.567-3.7-8.258-8.258-8.258h-82.581
	c-4.558,0-8.258,3.691-8.258,8.258v412.903c0,4.567,3.7,8.258,8.258,8.258h82.581h57.806v74.323c0,4.567,3.7,8.258,8.258,8.258
	h66.065c4.558,0,8.258-3.691,8.258-8.258v-99.097c0-4.567-3.7-8.258-8.258-8.258h-8.258v-35.526
	c56.469-11.512,99.097-61.547,99.097-121.377C503.775,173.964,452.616,120.312,388.162,116.034z M289.065,155.549V99.097h82.581
	v16.937C339.068,118.198,309.958,132.963,289.065,155.549z M371.646,57.806v24.774h-82.581V57.806H371.646z M206.484,16.516h66.065
	v161.429c-10.446,18.151-16.516,39.127-16.516,61.539c0,22.412,6.07,43.38,16.516,61.539v111.88h-66.065V16.516z M404.678,412.903
	v16.516H355.13v-16.516h8.258h33.032H404.678z M355.13,445.935h49.548v16.516H355.13V445.935z M355.13,371.613h-66.065v-48.194
	c17.292,18.704,40.176,32.165,66.065,37.442V371.613z M289.065,412.903v-24.774h66.065v8.258h-8.258
	c-4.558,0-8.258,3.691-8.258,8.258v8.258H289.065z M355.13,495.484v-16.516h49.548v16.516H355.13z M388.162,363.355v33.032h-16.516
	v-33.032H388.162z M379.904,346.839c-59.194,0-107.355-48.161-107.355-107.355s48.161-107.355,107.355-107.355
	s107.355,48.161,107.355,107.355S439.106,346.839,379.904,346.839z"/>
<path d="M379.904,148.645c-50.085,0-90.839,40.754-90.839,90.839s40.754,90.839,90.839,90.839s90.839-40.754,90.839-90.839
	S429.997,148.645,379.904,148.645z M379.904,313.806c-40.977,0-74.323-33.338-74.323-74.323s33.346-74.323,74.323-74.323
	s74.323,33.338,74.323,74.323S420.889,313.806,379.904,313.806z"/>
<path d="M113.111,428.115c1.544,0,3.072-0.438,4.402-1.263c1.858-1.173,3.171-3.031,3.658-5.17l68.682-303.707
	c1.007-4.443-1.775-8.861-6.218-9.868L86.999,86.024c-2.139-0.512-4.385-0.099-6.235,1.057c-1.858,1.173-3.171,3.031-3.658,5.17
	L8.431,395.949c-1.007,4.443,1.775,8.853,6.218,9.868l96.619,22.082C111.88,428.048,112.491,428.115,113.111,428.115z
	 M118.668,357.814l-80.219-19.737l41.778-184.725l80.219,19.745L118.668,357.814z M91.392,103.969l80.524,18.399l-7.829,34.626
	l-80.219-19.745L91.392,103.969z M26.36,391.556l8.456-37.376l80.219,19.737l-8.151,36.038L26.36,391.556z"/>
<rect x="223.017" y="379.871" width="33.032" height="16.516"/>
<rect x="223.017" y="33.032" width="33.032" height="16.516"/>
<rect x="223.017" y="66.065" width="33.032" height="16.516"/>
<rect x="223.017" y="99.097" width="33.032" height="16.516"/>
<g>
</g>
<g>
</g>
<g>
</g>
<g>
</g>
<g>
</g>
<g>
</g>
<g>
</g>
<g>
</g>
<g>
</g>
<g>
</g>
<g>
</g>
<g>
</g>
<g>
</g>
<g>
</g>
<g>
</g>
</svg>
