<svg id="Capa_1" enable-background="new 0 0 512 512" height="512" viewBox="0 0 512 512" width="512" xmlns="http://www.w3.org/2000/svg"><g><path d="m417 260h-70c-8.284 0-15-6.716-15-15v-65h-65c-8.284 0-15-6.716-15-15v-70c0-8.284 6.716-15 15-15h65v-65c0-8.284 6.716-15 15-15h70c8.284 0 15 6.716 15 15v65h65c8.284 0 15 6.716 15 15v70c0 8.284-6.716 15-15 15h-65v65c0 8.284-6.716 15-15 15z" fill="#ff7038"/><g><g><path d="m438.301 434.323c13.668-13.668 13.668-35.829 0-49.497l-56.569-56.569c-13.668-13.668-35.829-13.668-49.497 0l-28.284 28.284c-5.858 5.858-5.858 15.355 0 21.213l84.853 84.853c5.858 5.858 15.355 5.858 21.213 0z" fill="#e1e1e6"/><path d="m183.743 179.765c13.668-13.668 13.668-35.829 0-49.497l-56.569-56.569c-13.668-13.668-35.829-13.668-49.497 0l-28.284 28.284c-5.858 5.858-5.858 15.355 0 21.213l84.853 84.853c5.858 5.858 15.355 5.858 21.213 0z" fill="#fff5f5"/><path d="m303.951 356.541-5.423 5.423c-4.807 4.807-12.265 5.815-18.138 2.452-56.039-32.087-100.722-76.768-132.806-132.808-3.363-5.872-2.355-13.33 2.452-18.137l5.423-5.423-106.066-106.065-21.58 21.58c-34.091 34.091-37.225 88.382-7.288 126.285 35.376 44.79 73.388 87.509 113.753 127.874s83.084 78.377 127.874 113.753c37.903 29.937 92.194 26.803 126.285-7.288l21.58-21.58z" fill="#8bb9ff"/></g><path d="m303.951 356.541-5.423 5.423c-4.807 4.807-12.265 5.815-18.138 2.452-28.019-16.043-53.2-35.235-75.386-57.421l-70.726 70.726c40.365 40.365 83.084 78.377 127.874 113.753 37.903 29.937 92.194 26.803 126.285-7.288l21.58-21.58z" fill="#7d81e7"/></g><path d="m497 80h-65v-65c0-8.284-6.716-15-15-15h-35v260h35c8.284 0 15-6.716 15-15v-65h65c8.284 0 15-6.716 15-15v-70c0-8.284-6.716-15-15-15z" fill="#ff1f3d"/></g></svg>