<svg height="512" viewBox="0 0 60 60" width="512" xmlns="http://www.w3.org/2000/svg"><g id="Page-1" fill="none" fill-rule="evenodd"><g id="013---Rating" fill-rule="nonzero"><g id="Icons" transform="translate(1 1)"><path id="Shape" d="m40.14 11.21c.6125671.6673103 1.3005013 1.2612828 2.05 1.77v.01c-.4795428 1.3025536-.7495606 2.672894-.8 4.06-.0048924.8706047.0856482 1.7391234.27 2.59.0553875.2137057.2492443.3621917.47.36.828575-.0828322 1.6443267-.2641104 2.43-.54 1.255837-.4808099 2.4195049-1.1742748 3.44-2.05 1.0204951.8757252 2.184163 1.5691901 3.44 2.05.7856733.2758896 1.601425.4571678 2.43.54.2207557.0021917.4146125-.1462943.47-.36.1843518-.8508766.2748924-1.7193953.27-2.59-.0504394-1.387106-.3204572-2.7574464-.8-4.06v-.01c1.1206627-.762447 2.107341-1.7051978 2.92-2.79.4962983-.70474748.912217-1.46279277 1.24-2.26.071637-.21191724-.0009708-.44587571-.18-.58-.7109438-.43743952-1.4690993-.79303456-2.26-1.06-1.2764545-.38194576-2.6098899-.53762604-3.94-.46v-.02c-.3347306-1.34006359-.8852556-2.61674131-1.63-3.78-.4818409-.70445441-1.0420945-1.35193312-1.67-1.93-.1702826-.13351355-.4097174-.13351355-.58 0-.6279055.57806688-1.1881591 1.22554559-1.67 1.93-.7447444 1.16325869-1.2952694 2.43993641-1.63 3.78v.02c-1.3301101-.07762604-2.6635455.07805424-3.94.46-.7909007.26696544-1.5490562.62256048-2.26 1.06-.071704.04962845-.1273219.11915079-.16.2z" fill="#ff9801"/><path id="Shape" d="m19.95 7.55c-.0326781-.08084921-.088296-.15037155-.16-.2-.7109438-.43743952-1.4690993-.79303456-2.26-1.06-1.2764545-.38194576-2.6098899-.53762604-3.94-.46v-.02c-.3347306-1.34006359-.8852556-2.61674131-1.63-3.78-.4818409-.70445441-1.0420945-1.35193312-1.67-1.93-.1702826-.13351355-.40971736-.13351355-.58 0-.62790552.57806688-1.18815912 1.22554559-1.67 1.93-.74474439 1.16325869-1.29526943 2.43993641-1.63 3.78v.02c-1.33011007-.07762604-2.66354552.07805424-3.94.46-.7909007.26696544-1.54905617.62256048-2.26 1.06-.17902919.13412429-.25163699.36808276-.18.58.327783.79720723.74370165 1.55525252 1.24 2.26.81265897 1.0848022 1.79933727 2.027553 2.92 2.79v.01c-.47954281 1.3025536-.74956062 2.672894-.8 4.06-.0048924.8706047.08564816 1.7391234.27 2.59.05538747.2137057.24924431.3621917.47.36.82857496-.0828322 1.64432668-.2641104 2.43-.54 1.25583701-.4808099 2.41950491-1.1742748 3.44-2.05 1.0204951.8757252 2.184163 1.5691901 3.44 2.05.7856733.2758896 1.601425.4571678 2.43.54.2207557.0021917.4146125-.1462943.47-.36.1843518-.8508766.2748924-1.7193953.27-2.59-.0504394-1.387106-.3204572-2.7574464-.8-4.06v-.01c.7494987-.5087172 1.4374329-1.1026897 2.05-1.77z" fill="#ff9801"/><path id="Shape" d="m40.97 9.52c-.2271013.5863513-.5048164 1.1518193-.83 1.69-.05.08-.09.16-.14.23-.22.36-.41.65-.52.79-.9763403 1.3034006-2.1624979 2.4354883-3.51 3.35v.01c.5777134 1.5617361.9018103 3.2058527.96 4.87.0103845 1.0453907-.0969582 2.0886274-.32 3.11-.0497556.1773076-.1790888.3214217-.35.39l-4.26 3.04-5-4.68c-.6817084.399001-1.3939331.7434101-2.13 1.03-.94304.3354352-1.9237196.5537372-2.92.65-.2618476-.0019012-.4905609-.1775203-.56-.43-.2230418-1.0213726-.3303845-2.0646093-.32-3.11.0499232-1.3917192.285334-2.7705539.7-4.1.08-.26.17-.51.26-.77v-.01c-1.3475021-.9145117-2.5336597-2.0465994-3.51-3.35-.2373269-.32847-.4576174-.668919-.66-1.02-.3251836-.5381807-.6028987-1.1036487-.83-1.69-.081758-.25637972.0062754-.53648625.22-.7.8472811-.52738484 1.7534652-.95362703 2.7-1.27.01-.01.01-.01.02-.01 1.5303216-.45181799 3.1267936-.63784757 4.72-.55v-.02c.4074653-1.60489887 1.0691671-3.13424028 1.96-4.53.5732829-.84916265 1.2445725-1.62785859 2-2.32.2058539-.16014817.4941461-.16014817.7 0 .7554275.69214141 1.4267171 1.47083735 2 2.32.8908329 1.39575972 1.5525347 2.92510113 1.96 4.53v.02c1.5932064-.08784757 3.1896784.09818201 4.72.55.01 0 .01 0 .02.01.9465348.31637297 1.8527189.74261516 2.7 1.27.2137246.16351375.301758.44362028.22.7z" fill="#ffdc00"/><path id="Shape" d="m37 33v-7.2358c.0109395-.6539214-.2411818-1.2848441-.6997683-1.7511394-.4585864-.4662954-1.0852188-.7288985-1.7392317-.7288606-1.3870146-.0097605-2.5261932 1.0933879-2.561 2.48v-10.2842c.0164298-.6512988-.2305508-1.2816902-.6850391-1.7484884-.4544882-.4667982-1.0780556-.7305338-1.7295609-.7315116-1.3918261-.0114622-2.5389556 1.0889018-2.5854 2.48v19.3764c.0492282 1.0601824-.0656607 2.1216056-.3406 3.1467-.1762024.5359977-.6130785.945471-1.1593517 1.086632-.5462731.1411611-1.1268325-.0053994-1.5406483-.388932-.6938992-.6579384-1.3103932-1.392967-1.8375-2.1908-1.6585-2.48-5.1178-5.7859-6.7764-5.7859s-3.317 1.6531-1.6585 3.3062 5.1179 7.439 6.7764 11.5718c1.2606948 2.6131216 3.009898 4.9607918 5.1532 6.9163.9506738.9265966 1.4850131 2.1990666 1.4809 3.5266v.3024c.0018209.9142943.7443051 1.6540926 1.6586 1.6526h13.2683c.4391456.0007167.8605897-.1730462 1.1716189-.4830628.3110292-.3100165.4861656-.7308916.4868811-1.1700372v-2.5395c-.00782-.4424389.1703382-.8678637.4911-1.1727 2.826-2.5762 2.826-7.0331 2.826-7.0331v-13.085c.025518-1.3371981-.975724-2.4718841-2.3057-2.613-.6893527-.0456074-1.3673361.1929067-1.8762933.6600789-.5089571.4671721-.8045372 1.1222927-.8180067 1.8130211v-4.1328c.0045296-.6562381-.2530183-1.2871489-.7154989-1.7527459-.4624805-.4655971-1.0916474-.7273763-1.7479011-.7272541-1.3814249-.0060258-2.5114563 1.0987908-2.5366 2.48z" fill="#ffe0b2"/><g fill="#dfc49c"><path id="Shape" d="m46 32.52v13.08s0 4.46-2.83 7.03c-.3177304.3098406-.4947909.7362311-.49 1.18v2.54c-.0010057.4390325-.1765406.8596481-.4879208 1.1691525-.3113801.3095043-.7330486.4824946-1.1720792.4808475l-2 .0000117c.4390306.0016354.8606991-.1713549 1.1720792-.4808592.3113802-.3095044.4869151-.73012.4879208-1.1691525v-2.54c-.0047909-.4437689.1722696-.8701594.49-1.18 2.83-2.57 2.83-7.03 2.83-7.03v-13.08c.0077973-1.0257206-.5762458-1.9640832-1.5-2.41.3732687-.1670979.7820832-.2392416 1.19-.21 1.3328178.1423486 2.3357286 1.2798491 2.31 2.62z"/><path id="Shape" d="m41.47 28.3733v5.6567c-1.1045695 0-2-.8954305-2-2v-3.79c.0025253-.6559202-.2566127-1.2857695-.72-1.75-.21271-.2217446-.4677411-.3985662-.75-.52.2647348-.1184109.548781-.1877367.8383-.2046.6992945-.018378 1.3757511.2496845 1.8726395.7420792.4968883.4923947.771085 1.1663882.7590605 1.8658208z"/><path id="Shape" d="m36.47 25.88v8.157c-1.1045695 0-2-.8954305-2-2v-6.29c.0025253-.6559202-.2566127-1.2857695-.72-1.75-.212687-.2217716-.467724-.3985972-.75-.52.2647406-.1183786.5487869-.1876705.8383-.2045.6992321-.018403 1.375642.2495961 1.8725243.7419093.4968822.4923131.7711185 1.1662184.7591757 1.8655907z"/><path id="Shape" d="m31.47 15.63v18.37c-1.1045695 0-2-.8954305-2-2v-16.5029c.0025253-.6559202-.2566127-1.2857695-.72-1.75-.212687-.2217716-.467724-.3985972-.75-.52.2647406-.1183786.5487869-.1876705.8383-.2045.6992145-.018402 1.3756085.2495835 1.8724876.7418747.4968792.4922912.7711276 1.1661702.7592124 1.8655253z"/></g></g><g id="Layer_10" fill="#000"><path id="Shape" d="m16.87 22c-.9531769-.0825909-1.8918303-.287058-2.793-.6084-1.099689-.421601-2.1353032-.994302-3.077-1.7016-.9425866.70812-1.9792133 1.2814957-3.08 1.7036-.89591409.3188956-1.82871749.5226607-2.776.6064-.67704592.0097552-1.27406018-.4419926-1.4487-1.0962-.21097116-.945051-.31320166-1.9111242-.3047-2.8794.04409887-1.2436666.25257502-2.4760297.62-3.665-.95805237-.7365608-1.81170938-1.599738-2.5376-2.5659-.56369211-.7939186-1.03172842-1.6515824-1.3944-2.5552-.20375275-.62496454.01657065-1.31012838.5464-1.6992.80039369-.50174791 1.65765506-.90646041 2.5537-1.2056 1.12826927-.33494859 2.29772383-.51097597 3.4746-.523.36420656-1.16942921.8831375-2.28491213 1.543-3.3168.543845-.79994819 1.18095847-1.53233159 1.8979-2.1817.5580104-.40152226 1.314055-.38661158 1.8558.0366.6991726.64012924 1.321217 1.35970053 1.8535 2.1441.6600435 1.03221361 1.1791407 2.14802878 1.5435 3.3178 1.1724587.01161597 2.3375981.18632461 3.4619.5191.9028735.30035727 1.7664719.70789997 2.5723 1.2139.2282204.16275427.4034733.38909789.5039.6508.1813894.47675549-.0251338 1.01362501-.4792751 1.24590417s-1.0103244.08551025-1.2907249-.34060417c-.5974513-.3423165-1.2256637-.62789806-1.8764-.853-1.1628064-.34923258-2.3780426-.49089729-3.59-.4185-.275167.01835327-.5453753-.07980862-.7446-.2705-.1623536-.15308387-.2688957-.35603109-.3027-.5766-.3085857-1.21064393-.8099604-2.36374828-1.4849-3.4151-.338648-.48235513-.7109763-.94016322-1.1142-1.37-.4056036.42939101-.7795815.88758917-1.119 1.371-.68368675 1.06520774-1.18933812 2.23464688-1.4971 3.4624-.1040897.48283471-.54113992.82027499-1.0346.7988-1.21637099-.072443-2.43597632.07055408-3.6026.4224-.55941918.19655997-1.10367749.43386248-1.6284.71.27508128.56578473.5922038 1.1101444.9487 1.6285.74651302.9981745 1.65394251 1.8651513 2.6851 2.5654.27272465.1862943.43577212.4953209.4356.8256.00017801.1203821-.02011104.2399185-.06.3535-.44425124 1.2058149-.69403358 2.4745742-.74 3.7588.00442592.6236635.0522078 1.2462647.143 1.8633.56479596-.1012468 1.12134305-.2440686 1.6651-.4273 1.15261008-.4396535 2.22030815-1.0757318 3.1557-1.88.3729782-.3173044.9210218-.3173044 1.294 0 .9343068.803614 2.0008227 1.4392198 3.1522 1.8786.5440551.1838074 1.1011133.3266068 1.6665.4272.0925362-.6220895.1406912-1.249975.1441-1.8789-.04743-1.2784968-.2971951-2.5413969-.74-3.7417-.0398637-.1100596-.0601697-.2262436-.06-.3433-.0001095-.3319529.1614961-.6431491.4331-.834.6862532-.4649184 1.3159405-1.0082893 1.8763-1.6191.3716048-.4086907 1.0041593-.4387548 1.41285-.06715s.4387548 1.0041593.06715 1.41285c-.4914143.5390685-1.0302449 1.0329185-1.61 1.4756.3657353 1.1838326.5739263 2.4106867.6192 3.6489.0095395.9834525-.0953317 1.9646776-.3125 2.9239-.1786062.6382784-.7639514 1.0767847-1.4267 1.0688zm-.4888-1.6436-.0063.02zm-10.7694-.0249.0049.0176zm14.59-11.1728.0074.0054zm-18.3966-.0049-.0044.0029zm18.21-.2485.0005.0014zm-18.0367-.2906.002.0049zm8.6958-6.7265.0191.0151zm.6953-.0366-.04.0322c.0156-.0117.0288-.0225.0404-.0322z"/><path id="Shape" d="m22.9619 26c-.7186136.0031178-1.349524-.4773276-1.5376-1.1709-.248835-1.1194513-.3674553-2.2639111-.3535-3.4106.055957-1.5136205.3162811-3.0127291.7739-4.4566-1.18319-.8894363-2.2340514-1.9424189-3.1211-3.1274-.2612275-.3598912-.5035549-.733129-.726-1.1182-.3593937-.5986589-.6659205-1.2275055-.9161-1.8794-.2214442-.6725369.0150865-1.41119077.586-1.83.9195071-.57969854 1.9046055-1.04814561 2.9346-1.3955.0303124-.01207058.0612579-.02248592.0927-.0312l-.0005-.0015c1.3781441-.39736079 2.8045328-.60263048 4.2388-.61.4345391-1.43417393 1.0644886-2.80168351 1.8721-4.064.6341365-.94424529 1.3815713-1.80724093 2.2256-2.5697.5742302-.43870259 1.3715618-.43689774 1.9438.0044.8459845.76548572 1.5947558 1.63197154 2.2295 2.58.8034772 1.25810661 1.4302725 2.62064958 1.8628 4.0494 1.4339417.01171265 2.8597435.21689786 4.2388.61l-.0005.0015c.0314421.00871408.0623876.01912942.0927.0312 1.0350384.34941796 2.0246452.82119166 2.9478 1.4053.5578405.41275401.7912406 1.1347022.5806 1.7959-.2503777.658881-.5585452 1.2943239-.9209 1.8989-.2240058.3877373-.4680012.763577-.731 1.126-.8866369 1.1838257-1.9368097 2.2358167-3.1191 3.1245.4575772 1.4438811.7179003 2.942984.7739 4.4566.0135728 1.1568341-.1078477 2.3113027-.3618 3.44-.1341471.4674762-.4770138.8465974-.9287 1.0269-.4722523.1938281-1.0146863.0008367-1.2583865-.4477185s-.1104238-1.0086603.3091865-1.2993815c.1620747-.8695146.2429893-1.7522102.2417-2.6367-.0532686-1.560362-.3569748-3.1020213-.8995-4.566-.0407313-.1107443-.0616177-.2278028-.0617-.3458-.0001742-.3335609.16309-.6460419.437-.8364 1.2585696-.853063 2.365919-1.9102227 3.2764-3.1279.2133492-.2971765.4116648-.6048627.5942-.9219.2358334-.3992335.4494905-.8111578.64-1.2339-.6905086-.3829907-1.4129523-.70533336-2.1592-.9634-.022-.0068-.0444-.0141-.0659-.0224-1.4036152-.41057543-2.8671207-.57802357-4.3272-.4951-.5130487.02870097-.9641733-.3365158-1.0429-.8443-.3823227-1.4767965-.9955117-2.8839352-1.8169-4.1694-.4484575-.65110638-.9519361-1.26254735-1.5049-1.8276-.5495592.56041167-1.0502769 1.16671269-1.4967 1.8123-.8348012 1.30418392-1.4556106 2.73350733-1.8389 4.2338-.0430644.19557734-.1431486.37399585-.2876.5127-.1976667.1930211-.4666269.29526654-.7426.2823-1.4600512-.08194947-2.9233921.08547983-4.3272.4951-.0215.0083-.0439.0156-.0659.0224-.7465408.25826047-1.469419.5804207-2.1606.9629.1921379.4244224.4071193.8381281.644 1.2393.1810116.3143922.377727.6194779.5894.9141.910797 1.2188774 2.0188129 2.2770405 3.2783 3.1308.2734708.1862941.4370804.4958046.437.8267-.0000326.1211113-.020834.2413201-.0615.3554-.5425252 1.4639787-.8462314 3.005638-.8995 4.566.0000513.8281353.0688206 1.6548384.2056 2.4716.7576001-.1187842 1.5033-.3038958 2.2285-.5532.6858911-.2658795 1.3493234-.5864097 1.9839-.9585.4740812-.2834325 1.0881675-.1288812 1.3716.3452s.1288812 1.0881675-.3452 1.3716c-.7264708.4269359-1.4860835.7947871-2.2715 1.1-1.0572715.3820472-2.1598211.6246901-3.2798.7218zm13.6881-1.7114-.0044.0146zm-13.3081-.0244.0054.017zm17.8163-13.6387.0093.0073zm-22.3037-.0088-.0088.0063zm10.8765-8.7114.0039.0029zm.5434-.0044-.0039.0034z"/><path id="Shape" d="m54.87 22c-.9531769-.0825909-1.8918303-.287058-2.793-.6084-1.099689-.421601-2.1353032-.994302-3.077-1.7016-.9425866.70812-1.9792133 1.2814957-3.08 1.7036-.8959141.3188956-1.8287175.5226607-2.776.6064-.6770459.0097552-1.2740602-.4419926-1.4487-1.0962-.2109712-.945051-.3132017-1.9111242-.3047-2.8794.0440998-1.2439939.252575-2.4766874.62-3.666-.5796467-.442811-1.1184661-.9366507-1.61-1.4756-.3716048-.4086907-.3415407-1.0412452.06715-1.41285s1.0412452-.3415407 1.41285.06715c.5605465.6108468 1.1904367 1.154219 1.8769 1.6191.2711429.1865907.4331044.4946579.4331.8238.0000174.1204109-.0204409.239948-.0605.3535-.4442512 1.2058149-.6940336 2.4745742-.74 3.7588.0044259.6236635.0522078 1.2462647.143 1.8633.564796-.1012468 1.121343-.2440686 1.6651-.4273 1.1526101-.4396535 2.2203081-1.0757318 3.1557-1.88.3729782-.3173044.9210218-.3173044 1.294 0 .9342767.8036041 2.000758 1.4392095 3.1521 1.8786.5440551.1838074 1.1011133.3266068 1.6665.4272.0925362-.6220895.1406912-1.249975.1441-1.8789-.04743-1.2784968-.2971951-2.5413969-.74-3.7417-.0400911-.1100861-.0606007-.2263409-.0606-.3435-.0002226-.3329389.1624228-.6449342.4355-.8354 1.0321023-.7009514 1.9402024-1.5689694 2.687-2.5684.3558603-.5171848.6723514-1.06038097.9468-1.625-.5286419-.27844352-1.0771747-.51736331-1.6411-.7148-1.1627776-.34937207-2.3780386-.49103968-3.59-.4185-.2751457.01820328-.5452953-.07993731-.7446-.2705-.162371-.15327496-.2689057-.35638411-.3027-.5771-.3086824-1.21045444-.8100523-2.36337912-1.4849-3.4146-.338648-.48235513-.7109763-.94016322-1.1142-1.37-.405485.42927307-.7793621.88733687-1.1187 1.3706-.683788 1.06559748-1.1893789 2.23549206-1.4969 3.4637-.1043732.48258823-.5413195.8197371-1.0346.7983-1.2163718-.07247036-2.4359819.07052728-3.6026.4224-.6459156.22425764-1.2695418.50818367-1.8628.8481-.279674.42751246-.8366147.57548527-1.2915992.34316316-.4549845-.2323221-.6617033-.77023132-.4794008-1.24746316.1025356-.26542378.2814791-.49447979.5142-.6582.7991375-.5004191 1.6549025-.90411541 2.5493-1.2026 1.1282693-.33494859 2.2977238-.51097597 3.4746-.523.3642066-1.16942921.8831375-2.28491213 1.543-3.3168.5438323-.8000183 1.1809462-1.53246939 1.8979-2.1819.5580104-.40152226 1.314055-.38661158 1.8558.0366.6991726.64012924 1.321217 1.35970053 1.8535 2.1441.6600435 1.03221361 1.1791407 2.14802878 1.5435 3.3178 1.1724587.01161597 2.3375981.18632461 3.4619.5191.9028735.30035727 1.7664719.70789997 2.5723 1.2139.5280239.39169673.7449773 1.07808401.538 1.7021-.3618645.8997487-.8281233 1.7538965-1.3892 2.5449-.7265593.967259-1.5810226 1.8314444-2.54 2.5689.3660245 1.1834213.574223 2.4099836.6192 3.6479.0095395.9834525-.0953317 1.9646776-.3125 2.9239-.1786062.6382784-.7639514 1.0767847-1.4267 1.0688zm-.4888-1.6436-.0063.02zm-10.7695-.0249.0049.0176zm14.589-11.1733.0044.0029zm-18.3931-.0063-.0068.0048zm.1768-.2466-.0005.0014zm18.0346-.2832-.0019.0049zm-9.3447-6.7339.0191.0151zm.6953-.0366-.0395.0322c.0151-.0117.0288-.0225.0399-.0322z"/><path id="Shape" d="m28 36.8564c-.5522847 0-1-.4477153-1-1v-19.3764c.0547326-1.9398895 1.6447411-3.4831565 3.5854-3.48.917369-.0011834 1.796543.3672103 2.4390393 1.0220124s.9941461 1.5408061.9755607 2.4579876v17.52c0 .5522847-.4477153 1-1 1s-1-.4477153-1-1v-17.52c.0173893-.3862415-.1238801-.7628023-.3910256-1.0422985s-.6369417-.4376287-1.0235744-.4377015c-.8379883-.0068556-1.5346811.6435199-1.5854 1.48v19.3764c0 .2652165-.1053568.5195704-.2928932.7071068s-.4418903.2928932-.7071068.2928932z"/><path id="Shape" d="m38 35c-.5522847 0-1-.4477153-1-1v-7.2358c.009549-.38822-.1376722-.7639234-.4084316-1.0423032s-.6422329-.4359696-1.0305684-.4371968c-.8350648-.0107629-1.5270121.6450578-1.561 1.4795v7.2358c0 .5522847-.4477153 1-1 1s-1-.4477153-1-1v-7.2358c.0250899-1.9430737 1.6178662-3.4993964 3.561-3.4795.9205154-.0045383 1.8040537.3619134 2.4511429 1.0166232.6470892.6547097 1.0031718 1.5424776.9878571 2.4628768v7.2358c0 .5522847-.4477153 1-1 1z"/><path id="Shape" d="m43 36.03c-.5522847 0-1-.4477153-1-1v-5.7859c.0065161-.3915994-.1450286-.7693067-.4204033-1.0478051s-.6513487-.4342937-1.0429967-.4321949c-.8285763-.0044382-1.5099532.6518404-1.5366 1.48 0 .5522847-.4477153 1-1 1s-1-.4477153-1-1c.0178188-1.9366523 1.5999122-3.4934258 3.5366-3.48 1.9164731.0067257 3.465838 1.5635166 3.4634 3.48v5.7859c0 .5522847-.4477153 1-1 1z"/><path id="Shape" d="m43.0244 60h-13.2685c-1.466058-.0002727-2.6552224-1.187245-2.6582-2.6533v-.3023c.0018366-1.0563031-.4224328-2.0687018-1.1768-2.8081-2.250272-2.047595-4.0796469-4.5143655-5.3857-7.2622-1.6646-4.1479-5.0518-9.7387-6.5542-11.2363-.8847702-.7536044-1.2012918-1.9814808-.7911-3.0689.5790928-1.2114946 1.8132874-1.9722776 3.1558-1.9453 2.4014 0 6.2 4.1255 7.6074 6.2295.4846618.7346968 1.0516714 1.411619 1.69 2.0176.1568029.1519474.3818143.2105156.5928.1543.2251037-.0553376.405666-.2230053.4775-.4434.236143-.9221262.3327494-1.8744369.2866-2.8252 0-.5522847.4477153-1 1-1s1 .4477153 1 1c.0557848 1.1693698-.0769448 2.3400983-.3931 3.4673-.290061.8641987-1.0007859 1.5208237-1.8852 1.7417-.8703106.218513-1.7920072-.0206239-2.4463-.6347-.7491036-.7105542-1.4148589-1.5040994-1.9844-2.3653-1.7729-2.65-4.9536-5.3418-5.9453-5.3418-.5321091-.0185062-1.0324371.2528828-1.3071.709-.104.252.0151.5508.3545.8892 1.832 1.8261 5.3642 7.8354 6.9985 11.9072 1.0313 2.5708 3.5254 5.22 4.92 6.5708 1.1424861 1.1167047 1.7862831 2.6470069 1.7857 4.2446v.3023c.0017634.3621455.2964521.6544627.6586.6533h13.2685c.3621417.0011078.6568267-.2911614.6587-.6533v-2.5391c-.0078188-.7235624.2885782-1.417151.8169-1.9116 2.4561-2.2388 2.5-6.256 2.5-6.296v-13.0834c.0220779-.811488-.5722395-1.5086133-1.377-1.6152-.4124442-.0260534-.8178447.1161238-1.1236703.3940802-.3058255.2779564-.4859749.6679694-.4993297 1.0810198 0 .5522847-.4477153 1-1 1s-1-.4477153-1-1c.0134178-.9684216.4244778-1.8887141 1.1367486-2.5449844.7122707-.6562703 1.6630713-.9907654 2.6293514-.9250156 1.8545975.1756351 3.2625954 1.7474256 3.2339 3.6101v13.085c0 .2-.0356 4.9311-3.1523 7.7724-.1117559.1160043-.1712234.2726574-.1646.4336v2.5391c-.0032529 1.4661358-1.1925606 2.6530279-2.6587 2.6533z"/></g></g></g></svg>