<svg id="Capa_1" enable-background="new 0 0 512 512" height="512" viewBox="0 0 512 512" width="512" xmlns="http://www.w3.org/2000/svg"><g><g><path clip-rule="evenodd" d="m130.664 472.512c0-17.191-13.952-31.144-31.143-31.144-17.22 0-31.172 13.953-31.172 31.144 0 17.22 13.952 31.173 31.172 31.173 17.191 0 31.143-13.953 31.143-31.173z" fill="#7e707d" fill-rule="evenodd"/></g><g><path clip-rule="evenodd" d="m408.387 441.368c-17.22 0-31.143 13.953-31.143 31.144 0 17.22 13.923 31.173 31.143 31.173 17.19 0 31.143-13.953 31.143-31.173 0-17.191-13.952-31.144-31.143-31.144z" fill="#7e707d" fill-rule="evenodd"/></g><g fill="#e0dfe1"><path d="m205.273 352.114-97.964 55.154v-38.607c0-4.301-3.487-7.788-7.788-7.788s-7.788 3.487-7.788 7.788v52.037.017 51.796c0 4.301 3.487 7.788 7.788 7.788s7.788-3.487 7.788-7.788v-47.371l105.602-59.452c3.749-2.109 5.077-6.858 2.968-10.606s-6.859-5.077-10.606-2.968z"/><path d="m416.175 420.698v-52.037c0-4.301-3.487-7.788-7.788-7.788s-7.788 3.487-7.788 7.788v38.607l-93.986-52.682c-3.747-2.108-8.496-.78-10.606 2.968-2.109 3.749-.78 8.497 2.968 10.606l101.624 56.98v47.371c0 4.301 3.487 7.788 7.788 7.788s7.788-3.487 7.788-7.788v-51.796c0-.005 0-.011 0-.017z"/></g><g><path clip-rule="evenodd" d="m448.449 330.129-194.509-13.814-194.48 13.814v33.852c0 2.59 2.09 4.68 4.68 4.68h35.381 92.28 124.306 92.28 35.352c2.561 0 4.68-2.061 4.71-4.621v-.059z" fill="#7e707d" fill-rule="evenodd"/></g><g><path clip-rule="evenodd" d="m70.939 253.212 64.14 21.93 64.14-21.93v-19.899c0-10.95-8.948-19.928-19.898-19.928h-88.483c-10.95 0-19.898 8.978-19.898 19.928v19.899z" fill="#b3e59f" fill-rule="evenodd"/></g><g><path clip-rule="evenodd" d="m478.09 296.483v-38.12c0-2.826-2.325-5.151-5.151-5.151-91.25 0-182.47 0-273.72 0h-128.28-41.15v43.271l6.387.471 217.763 16.337z" fill="#95d6a4" fill-rule="evenodd"/></g><g><path clip-rule="evenodd" d="m179.321 213.385h-32.791c10.95 0 19.898 8.978 19.898 19.928v19.899h32.791v-19.899c0-10.95-8.948-19.928-19.898-19.928z" fill="#95d6a4" fill-rule="evenodd"/></g><g><path clip-rule="evenodd" d="m444.063 258.363v38.12h29.789 4.239v-38.12c0-2.826-2.325-5.151-5.151-5.151h-34.027c2.825 0 5.15 2.325 5.15 5.151z" fill="#95d6a4" fill-rule="evenodd"/></g><g><path clip-rule="evenodd" d="m264.36 330.129h-204.9v18.457h178.438 184.06v20.076h21.782c2.561 0 4.68-2.061 4.71-4.621v-.059-33.852h-184.09z" fill="#6a5d6a" fill-rule="evenodd"/></g><g><path d="m29.789 308.166c-4.301 0-7.788-3.487-7.788-7.788v-278.652c0-7.395 6.015-13.411 13.41-13.411h85.51c7.395 0 13.41 6.016 13.41 13.411v41.476c0 4.301-3.487 7.788-7.788 7.788s-7.788-3.487-7.788-7.788v-39.31h-81.178v276.486c0 4.301-3.487 7.788-7.788 7.788z" fill="#e0dfe1"/></g><path d="m420.196 205.597h-178.798c-7.868 0-14.27 5.963-14.27 13.293v77.594c0 4.301 3.487 7.788 7.788 7.788h191.761c4.301 0 7.788-3.487 7.788-7.788v-77.594c0-7.33-6.401-13.293-14.269-13.293zm-129.159 83.098h-48.332v-67.522h48.332zm63.944 0h-48.367v-67.522h48.367zm63.908 0h-48.332v-67.522h48.332z" fill="#e0dfe1"/><g><path clip-rule="evenodd" d="m258.384 296.483h-228.595-29.789v33.646h59.46 388.989 59.43c2.267 0 4.121-1.854 4.121-4.121v-25.433c0-2.237-1.854-4.092-4.121-4.092h-29.789-57.723z" fill="#f9f7f8" fill-rule="evenodd"/></g><g><path clip-rule="evenodd" d="m507.879 296.483h-29.789-4.239c2.267 0 4.121 1.854 4.121 4.092v25.433c0 2.267-1.854 4.121-4.121 4.121h34.027c2.267 0 4.121-1.854 4.121-4.121v-25.433c.001-2.237-1.853-4.092-4.12-4.092z" fill="#f0f0f0" fill-rule="evenodd"/></g><g><path clip-rule="evenodd" d="m104.702 135.232h43.682c3.827 0 6.976-3.12 6.976-6.976v-36.237c0-15.866-12.981-28.818-28.817-28.818-15.866 0-28.847 12.952-28.847 28.818v36.236c0 3.856 3.15 6.977 7.006 6.977z" fill="#edf4ff" fill-rule="evenodd"/></g><g><path clip-rule="evenodd" d="m112.473 66.851c8.801 4.975 14.777 14.394 14.777 25.168v36.236c0 3.856-3.12 6.976-6.976 6.976h28.111c3.827 0 6.976-3.12 6.976-6.976v-36.236c0-15.866-12.981-28.818-28.817-28.818-5.093 0-9.891 1.325-14.071 3.65z" fill="#dbeaff" fill-rule="evenodd"/></g></g></svg>